<svg xmlns="http://www.w3.org/2000/svg" width="218" height="28" viewBox="0 0 218 28">
    <g fill="none" fill-rule="nonzero">
        <path fill="#652D90" d="M33.946 24.836l-1.274-3.099c-.163-.428-.653-.626-1.078-.461-.425.165-.62.66-.457 1.088l.522 1.252-2.776-1.153V10.168a.874.874 0 0 0-.523-.79L17.843 5.52V2.818l.947.956c.163.165.36.23.588.23a.834.834 0 0 0 .588-.23c.326-.33.326-.857 0-1.154L17.614.247c-.327-.33-.85-.33-1.143 0L14.119 2.62c-.327.33-.327.857 0 1.154.327.33.85.33 1.143 0l.947-.956v2.703L5.66 9.41a.825.825 0 0 0-.523.79v12.295L2.36 23.649l.523-1.252c.163-.429-.033-.89-.458-1.088-.424-.165-.882.033-1.078.461L.073 24.87a.704.704 0 0 0 0 .626c.098.198.23.363.458.461l3.07 1.286a.959.959 0 0 0 .327.066c.326 0 .62-.198.751-.495.163-.428-.033-.89-.457-1.087l-1.241-.528 2.94-1.22 10.811 3.956s.163.066.294.066c.13 0 .294-.066.294-.066l10.812-3.955 2.94 1.22-1.242.527c-.424.165-.62.659-.457 1.087.13.33.425.495.751.495.098 0 .196-.033.327-.066l3.07-1.286c.196-.098.36-.23.458-.461.032-.23.032-.428-.033-.66zm-17.737 1.12l-8.035-2.933 8.035-3.296v6.23zm0-8.009L6.77 21.77V11.454l9.44 3.856v2.637zm0-4.417l-8.035-3.263 8.035-2.966v6.23zm1.634-6.23l8.035 2.967-8.035 3.263V7.3zm0 18.656v-6.23l8.035 3.297-8.035 2.933zm9.407-4.186l-9.407-3.823V15.31l9.44-3.856V21.77h-.033z"/>
        <path fill="#47BEAF" d="M56.653 13.308v7.923a6.879 6.879 0 0 1-1.567 1.223 7.05 7.05 0 0 1-1.764.74c-.62.194-1.24.323-1.86.387-.654.065-1.274.097-1.927.097a9.278 9.278 0 0 1-2.515-.322 10.01 10.01 0 0 1-2.253-.934 12.001 12.001 0 0 1-1.926-1.45 8.847 8.847 0 0 1-1.47-1.867c-.424-.676-.718-1.417-.947-2.222a8.915 8.915 0 0 1-.326-2.48c0-.87.098-1.674.326-2.48a9.725 9.725 0 0 1 .947-2.221 10.36 10.36 0 0 1 1.47-1.868 8.36 8.36 0 0 1 1.926-1.45c.686-.418 1.47-.708 2.253-.933a9.278 9.278 0 0 1 2.515-.322c.685 0 1.371.096 2.057.257.686.161 1.339.42 1.992.709.653.322 1.273.676 1.86 1.127.589.45 1.144.966 1.699 1.514L56.065 9.83c-.522.547-1.208.837-2.024.837-.588 0-1.11-.161-1.568-.483a5.424 5.424 0 0 0-1.371-.677 4.947 4.947 0 0 0-1.535-.257c-.718 0-1.404.129-2.024.418a5.318 5.318 0 0 0-1.665 1.095c-.49.451-.85.999-1.143 1.643-.294.612-.425 1.288-.425 1.996 0 .741.163 1.417.457 2.061a5.28 5.28 0 0 0 1.176 1.61c.49.451 1.077.806 1.73 1.063a5.555 5.555 0 0 0 2.058.387c.49 0 .98-.032 1.469-.13.49-.096.947-.225 1.339-.418v-1.77a3.27 3.27 0 0 1-1.143-.194c-.36-.129-.653-.29-.882-.515-.26-.226-.424-.483-.587-.773a2.325 2.325 0 0 1-.196-.966v-1.45h6.922zM66.71 16.175c0 .45.098.901.294 1.288.196.418.457.773.751 1.062.327.29.686.548 1.11.741.425.193.85.258 1.306.258.458 0 .915-.097 1.307-.258a3.706 3.706 0 0 0 1.11-.74c.326-.29.588-.677.783-1.063.196-.419.294-.838.294-1.288V5.29h4.213v10.885c0 1.03-.196 2.028-.62 2.93a7.175 7.175 0 0 1-1.666 2.383 7.495 7.495 0 0 1-2.45 1.61 7.794 7.794 0 0 1-3.003.58 8.294 8.294 0 0 1-2.025-.258c-.653-.193-1.273-.418-1.828-.773a7.734 7.734 0 0 1-1.568-1.191 7.73 7.73 0 0 1-1.208-1.514 8.17 8.17 0 0 1-.783-1.803c-.196-.644-.262-1.32-.262-1.997V5.29h4.245v10.885zM101.322 23.517h-4.18l-8.848-12.592v12.592h-4.212V5.29h4.147c.424 0 .783.064 1.11.193.326.129.555.29.75.548l6.466 9.338c.098.13.163.29.261.451.066.161.13.322.196.451s.098.258.13.354c.034.097.034.161.034.194V5.289h4.212v18.228h-.066z"/>
        <path fill="#652D90" d="M113.437 9.283c-.229 0-.425.032-.653.064a1.622 1.622 0 0 0-.555.194 1.302 1.302 0 0 0-.392.322.763.763 0 0 0-.164.45c0 .258.066.484.196.645.131.16.36.29.62.386.295.129.621.225 1.046.354.424.13.914.258 1.47.451a8.998 8.998 0 0 1 1.958.87c.588.354 1.078.74 1.502 1.223.425.451.751.966.98 1.546.228.58.36 1.224.36 1.932 0 .87-.197 1.675-.556 2.416a6.593 6.593 0 0 1-1.502 1.9 7.216 7.216 0 0 1-2.188 1.223c-.816.29-1.665.451-2.58.451-.75 0-1.469-.096-2.155-.322a6.902 6.902 0 0 1-1.893-.934 6.245 6.245 0 0 1-1.502-1.417 7.349 7.349 0 0 1-1.013-1.77l1.34-.774c.228-.129.456-.225.685-.29.261-.064.49-.096.75-.096.36 0 .72.064 1.013.225l.882.483c.294.193.587.354.881.483.294.161.653.226 1.045.226.261 0 .555-.032.85-.13.293-.096.587-.192.848-.353.261-.161.49-.355.653-.58.164-.225.261-.483.261-.773 0-.29-.065-.515-.228-.676-.163-.193-.36-.322-.653-.451a5.277 5.277 0 0 0-.947-.354c-.36-.097-.718-.258-1.11-.387a23.398 23.398 0 0 1-1.894-.773c-.62-.29-1.176-.611-1.665-1.03a5.083 5.083 0 0 1-1.209-1.514c-.294-.58-.457-1.32-.457-2.19 0-.837.163-1.545.523-2.19a4.629 4.629 0 0 1 1.338-1.61c.556-.45 1.209-.772 1.927-.998a7.442 7.442 0 0 1 2.22-.354c.555 0 1.078.097 1.6.258a7.709 7.709 0 0 1 1.47.708c.457.29.914.612 1.306.998.392.387.784.741 1.11 1.16L117.65 9.38a2.374 2.374 0 0 1-.816.483c-.294.096-.588.129-.947.129a2.42 2.42 0 0 1-.719-.097c-.196-.064-.391-.129-.587-.226a4.015 4.015 0 0 0-.556-.225c-.163-.129-.359-.16-.587-.16zM123.135 9.186V5.29h14.498v3.896h-5.127V23.55h-4.212V9.186zM146.547 16.175c0 .45.098.901.294 1.288.196.418.457.773.75 1.062.327.29.687.548 1.111.741.425.193.849.258 1.306.258.457 0 .914-.097 1.306-.258a3.706 3.706 0 0 0 1.11-.74c.327-.29.588-.677.784-1.063.196-.419.294-.838.294-1.288V5.29h4.212v10.885c0 1.03-.196 2.028-.62 2.93a7.175 7.175 0 0 1-1.665 2.383 7.495 7.495 0 0 1-2.45 1.61 7.794 7.794 0 0 1-3.003.58 8.294 8.294 0 0 1-2.025-.258c-.653-.193-1.273-.418-1.829-.773a7.734 7.734 0 0 1-1.567-1.191 7.73 7.73 0 0 1-1.208-1.514 8.17 8.17 0 0 1-.784-1.803c-.196-.644-.261-1.32-.261-1.997V5.29h4.245v10.885zM163.886 23.517V5.29h7.64c.85 0 1.666.096 2.482.322.784.225 1.535.515 2.22.934.686.386 1.307.87 1.894 1.417.588.547 1.045 1.159 1.47 1.835.392.677.718 1.385.947 2.19.228.773.326 1.578.326 2.415 0 .838-.098 1.643-.326 2.416-.229.773-.523 1.513-.947 2.19a7.937 7.937 0 0 1-1.47 1.835 9.975 9.975 0 0 1-1.893 1.417 8.908 8.908 0 0 1-2.22.902c-.785.225-1.633.322-2.482.322h-7.641v.032zm7.64-4.154c.686 0 1.34-.13 1.927-.387a5.468 5.468 0 0 0 1.633-1.062c.457-.451.849-.967 1.11-1.578.261-.612.424-1.256.424-1.933 0-.676-.13-1.32-.424-1.932-.261-.612-.653-1.127-1.11-1.578a5.086 5.086 0 0 0-1.633-1.062 5.017 5.017 0 0 0-1.926-.387h-3.429v9.887h3.429v.032zM191.02 23.517h-4.244V5.29h4.244zM196.963 14.403c0-.87.098-1.674.327-2.48a9.725 9.725 0 0 1 .947-2.221 10.36 10.36 0 0 1 1.47-1.868 8.36 8.36 0 0 1 1.926-1.45c.718-.418 1.469-.708 2.285-.933a9.278 9.278 0 0 1 2.515-.322c.881 0 1.698.096 2.514.322.816.225 1.567.547 2.286.934a10.71 10.71 0 0 1 1.926 1.449 8.847 8.847 0 0 1 1.47 1.868c.424.676.718 1.417.947 2.222.228.805.326 1.61.326 2.48 0 .869-.098 1.674-.326 2.48a9.725 9.725 0 0 1-.947 2.221 10.36 10.36 0 0 1-1.47 1.868 8.36 8.36 0 0 1-1.926 1.449c-.719.419-1.47.709-2.286.934a9.278 9.278 0 0 1-2.514.322c-.882 0-1.731-.097-2.515-.322a10.01 10.01 0 0 1-2.253-.934 10.71 10.71 0 0 1-1.926-1.45 8.847 8.847 0 0 1-1.47-1.867c-.424-.676-.718-1.417-.947-2.222-.26-.805-.359-1.61-.359-2.48zm4.213 0c0 .709.13 1.353.424 1.997.294.612.653 1.16 1.143 1.642.49.451 1.045.838 1.665 1.095.62.258 1.306.387 2.025.387.718 0 1.371-.13 2.024-.387s1.208-.644 1.698-1.095c.49-.45.85-.998 1.143-1.642.294-.612.424-1.288.424-1.997 0-.708-.13-1.352-.424-1.996-.294-.612-.653-1.16-1.143-1.643-.49-.45-1.045-.837-1.698-1.095-.653-.257-1.306-.418-2.024-.418-.719 0-1.404.129-2.025.418a5.318 5.318 0 0 0-1.665 1.095c-.49.451-.85.999-1.143 1.643a4.673 4.673 0 0 0-.424 1.996z"/>
        <path fill="#49494A" d="M215 5.32V5h1.2v.32h-.457v1.64h-.286V5.32H215zm1.857-.32l.372 1.4.371-1.4h.4v2h-.257V5.4l-.4 1.6h-.229l-.4-1.6V7h-.257V5h.4z"/>
    </g>
</svg>
